<?xml version="1.0" encoding="utf-8"?>
<!-- Generator: Adobe Illustrator 16.0.0, SVG Export Plug-In . SVG Version: 6.00 Build 0)  -->
<!DOCTYPE svg PUBLIC "-//W3C//DTD SVG 1.1//EN" "http://www.w3.org/Graphics/SVG/1.1/DTD/svg11.dtd">
<svg version="1.1" id="Layer_1" xmlns="http://www.w3.org/2000/svg" xmlns:xlink="http://www.w3.org/1999/xlink" x="0px" y="0px"
	 width="120px" height="120px" viewBox="0 0 120 120" enable-background="new 0 0 120 120" xml:space="preserve">
<g>
	<path fill="#6D6E70" d="M-33.574,34.678c2.517-0.021,5.992-0.053,6.164-0.083c0.266-0.046,0.544-0.195,0.768-0.421l6.704-6.707
		c0.223-0.223,0.381-0.502,0.423-0.768c0.046-0.274-0.014-0.516-0.172-0.674l-7.834-7.83c-0.158-0.16-0.4-0.218-0.67-0.177
		c-0.265,0.044-0.549,0.196-0.772,0.421l-6.704,6.704c-0.224,0.223-0.377,0.505-0.423,0.775c-0.028,0.184-0.047,4.18-0.051,6.715
		c-6.276-4.706-13.72-7.907-21.824-9.098V13.304h4.015c0.312,0,0.619-0.091,0.837-0.249c0.228-0.158,0.354-0.375,0.354-0.6V1.382
		c0-0.223-0.13-0.439-0.349-0.598c-0.223-0.161-0.53-0.249-0.842-0.249H-76.05c-0.316,0-0.619,0.088-0.842,0.249
		c-0.219,0.158-0.349,0.375-0.349,0.598v11.072c0,0.226,0.13,0.442,0.351,0.6c0.221,0.154,0.523,0.249,0.84,0.249h4.017v10.232
		c-23.275,3.424-41.219,23.468-41.219,47.675c0,26.61,21.649,48.253,48.255,48.253c26.603,0,48.25-21.643,48.25-48.253
		C-16.747,56.611-23.293,43.532-33.574,34.678z M-64.997,112.021c-22.507,0-40.812-18.307-40.812-40.809
		c0-22.5,18.304-40.809,40.812-40.809c22.5,0,40.806,18.309,40.806,40.809C-24.19,93.714-42.497,112.021-64.997,112.021z"/>
	<path fill="#6D6E70" d="M-45.53,47.477l-21.79,21.79c-1.151,1.149-1.151,3.019,0,4.173c1.154,1.149,3.021,1.149,4.172,0
		l21.791-21.792c1.149-1.154,1.149-3.021,0-4.171C-42.511,46.323-44.376,46.323-45.53,47.477z"/>
</g>
<g>
	<path fill="#6D6E70" d="M119.076,62.219c-17.667-23.208-37.006-34.98-57.494-34.98c-34.712,0-59.647,33.596-60.691,35.025
		c-0.756,1.035-0.751,2.442,0.01,3.476c19.16,25.896,39.271,39.028,59.774,39.028c34.89,0,57.635-37.677,58.585-39.279
		C119.87,64.46,119.794,63.168,119.076,62.219z M60.676,98.905c-18.082,0-36.148-11.729-53.719-34.868
		c5.461-6.689,27.158-30.934,54.625-30.934c18.087,0,35.434,10.444,51.575,31.047C108.424,71.276,88.277,98.905,60.676,98.905z"/>
	<path fill="#6D6E70" d="M59.921,38.881c-14.781,0-26.808,11.963-26.808,26.669c0,14.706,12.027,26.666,26.808,26.666
		c14.78,0,26.807-11.96,26.807-26.666C86.728,50.844,74.701,38.881,59.921,38.881z M59.921,89.406
		c-13.229,0-23.995-10.704-23.995-23.855c0-13.152,10.766-23.854,23.995-23.854c13.23,0,23.991,10.702,23.991,23.854
		C83.912,78.702,73.151,89.406,59.921,89.406z"/>
	<path fill="#6D6E70" d="M59.921,54.309c-6.243,0-11.309,5.035-11.309,11.241c0,6.212,5.066,11.238,11.309,11.238
		c6.239,0,11.298-5.026,11.298-11.238C71.219,59.344,66.16,54.309,59.921,54.309z M53.251,62.103L53.3,61.86l3.465-2.355
		l3.429,6.735L53.251,62.103z"/>
</g>
<g>
	<path fill="#6D6E70" d="M204.167,82.417c-11.33-14.886-23.735-22.438-36.875-22.438c-22.266,0-38.26,21.549-38.93,22.467
		c-0.485,0.663-0.481,1.566,0.006,2.229c12.29,16.611,25.19,25.033,38.339,25.033c22.381,0,36.974-24.165,37.578-25.192
		C204.678,83.856,204.628,83.027,204.167,82.417z M166.707,105.946c-11.596,0-23.185-7.521-34.456-22.363
		c3.504-4.291,17.42-19.843,35.04-19.843c11.601,0,22.726,6.701,33.079,19.917C197.338,88.226,184.413,105.946,166.707,105.946z"/>
	<path fill="#6D6E70" d="M166.225,67.448c-9.48,0-17.196,7.673-17.196,17.108c0,9.43,7.715,17.103,17.196,17.103
		c9.481,0,17.193-7.673,17.193-17.103C183.417,75.121,175.706,67.448,166.225,67.448z M166.225,99.854
		c-8.486,0-15.392-6.866-15.392-15.298c0-8.438,6.906-15.301,15.392-15.301c8.487,0,15.389,6.864,15.389,15.301
		C181.614,92.988,174.711,99.854,166.225,99.854z"/>
	<path fill="#6D6E70" d="M166.225,77.344c-4.004,0-7.253,3.229-7.253,7.211c0,3.98,3.25,7.206,7.253,7.206
		c4.002,0,7.246-3.226,7.246-7.206C173.47,80.573,170.227,77.344,166.225,77.344z M161.946,82.342l0.031-0.157l2.223-1.511
		l2.2,4.323L161.946,82.342z"/>
</g>
<g>
	<ellipse fill-rule="evenodd" clip-rule="evenodd" fill="#6D6E70" cx="200.333" cy="50.449" rx="5.906" ry="4.607"/>
	<path fill-rule="evenodd" clip-rule="evenodd" fill="#6D6E70" d="M195.475,59.046c0,1.176-1.221,2.129-2.73,2.129
		c-1.503,0-2.725-0.953-2.725-2.129c0-1.178,1.222-2.13,2.725-2.13C194.254,56.916,195.475,57.868,195.475,59.046z"/>
	<path fill-rule="evenodd" clip-rule="evenodd" fill="#6D6E70" d="M242.261,28.591c-0.308-2.74-2.153-5.014-4.805-6.395
		c0.03-0.493,0.035-0.995-0.024-1.498c-0.551-4.941-5.222-8.52-10.646-8.342c-1.831-2.759-5.345-4.426-9.171-4
		c-2.239,0.248-4.214,1.179-5.709,2.522c-1.354-1.621-3.607-2.562-6.045-2.29c-3.205,0.359-5.657,2.699-5.985,5.485
		c-7.28,1.72-12.344,8.025-11.576,14.904c0.746,6.692,6.763,11.639,13.979,11.966c1.341,1.309,3.515,2.035,5.866,1.771
		c1.257-0.139,2.393-0.546,3.341-1.125c1.936,1.604,4.813,2.464,7.916,2.117c3.678-0.408,6.675-2.395,7.99-4.952
		c1.354,0.254,2.81,0.324,4.298,0.159C238.082,38.201,242.817,33.58,242.261,28.591z"/>
</g>
<g>
	<path fill-rule="evenodd" clip-rule="evenodd" fill="#6D6E70" d="M290.521,94.856c0,5.495-5.707,9.945-12.744,9.945
		c-7.039,0-12.745-4.45-12.745-9.945c0-5.49,5.706-9.943,12.745-9.943C284.814,84.913,290.521,89.366,290.521,94.856z"/>
	<path fill-rule="evenodd" clip-rule="evenodd" fill="#6D6E70" d="M267.291,113.413c0,2.535-2.639,4.596-5.893,4.596
		c-3.252,0-5.887-2.062-5.887-4.596c0-2.54,2.635-4.595,5.887-4.595C264.652,108.817,267.291,110.873,267.291,113.413z"/>
	<path fill-rule="evenodd" clip-rule="evenodd" fill="#6D6E70" d="M368.271,47.677c-0.66-5.915-4.641-10.823-10.366-13.804
		c0.069-1.062,0.074-2.145-0.051-3.232c-1.187-10.668-11.271-18.391-22.977-18.007C330.922,6.68,323.333,3.082,315.08,4
		c-4.834,0.539-9.1,2.549-12.325,5.446c-2.926-3.499-7.792-5.527-13.042-4.94c-6.928,0.772-12.218,5.823-12.922,11.84
		c-15.716,3.711-26.646,17.321-24.991,32.169c1.613,14.446,14.594,25.125,30.173,25.83c2.897,2.824,7.583,4.391,12.667,3.824
		c2.708-0.3,5.157-1.179,7.204-2.428c4.179,3.459,10.39,5.316,17.09,4.568c7.935-0.883,14.409-5.169,17.246-10.689
		c2.931,0.55,6.059,0.697,9.279,0.341C359.26,68.42,369.471,58.445,368.271,47.677z"/>
</g>
<path fill="#6D6E70" d="M434.998,1.852c-0.589,0-36.731,57.925-36.731,78.208c0,20.292,16.443,36.735,36.731,36.735
	c20.287,0,36.735-16.443,36.735-36.735C471.733,59.777,435.595,1.852,434.998,1.852z"/>
<path fill="#6D6E70" d="M-18.075,184.388c-0.463-1.052-1.508-1.728-2.656-1.728h-9.264c-2.08,0-3.616-0.326-4.476-0.964
	c-0.662-0.478-2.113-1.947-5.313-6.282l-2.443-3.228c-3.105-4.132-4.793-6.311-5.918-7.615l-16.014-17.044l-3.975-17.606
	c-0.175-0.761-0.643-1.423-1.305-1.834c-0.667-0.406-1.465-0.534-2.226-0.35l-0.926,0.227c-9.841,2.312-14.833,8.248-14.833,17.645
	c0,3.389,1.536,7.979,4.755,14.128l1.366,2.373c2.217,4.339,3.72,8.853,4.486,13.438h-0.686c-8.772,0-15.967,1.526-21.402,4.552
	c-5.634,3.172-8.484,7.466-8.484,12.75c0,4.244,1.451,8.017,4.434,11.505c-1.078,1.938-1.621,3.828-1.621,5.639
	c0,2.553,0.709,4.693,2.099,6.348c1.167,1.438,2.822,2.538,4.92,3.285c-0.052,0.614-0.076,1.125-0.076,1.536
	c0,5.785,3.229,9.288,9.359,10.182c-0.014,0.17-0.019,0.321-0.019,0.463c0,4.807,2.472,10.54,14.241,10.54h3.394
	c0.458,0,0.907-0.104,1.319-0.312l2.363-1.201c3.753,1.007,7.142,1.513,10.067,1.513c1.063,0,2.619-0.085,4.75-0.255
	c0.34-0.033,0.671-0.118,0.983-0.26c6.929-3.215,13.452-8.253,19.389-14.975h11.453c1.201,0,2.273-0.737,2.708-1.853
	c2.637-6.769,3.966-13.599,3.966-20.296C-13.66,197.802-15.145,190.968-18.075,184.388z M-55.491,235.866l4.112-1.839
	c0.732-0.326,1.3-0.945,1.56-1.707c0.265-0.761,0.198-1.597-0.18-2.311c-1.428-2.685-3.162-4.963-5.185-6.797l1.985-0.937
	c0.747-0.35,1.31-1.011,1.546-1.806c0.236-0.794,0.118-1.654-0.317-2.354c-1.588-2.562-3.294-4.623-5.095-6.163
	c0.662-0.341,1.177-0.917,1.427-1.626c0.274-0.766,0.213-1.607-0.17-2.33c-1.636-3.097-3.734-5.521-6.249-7.246
	c0.416-0.341,0.732-0.799,0.907-1.319c0.255-0.751,0.189-1.573-0.18-2.273c-3.696-7.052-9.373-10.625-16.869-10.625
	c-1.513,0-3.186,0.227-4.949,0.661c-1.626,0.369-3.413,0.974-5.62,1.891l-3.242,0.043c-1.153,0.014-2.188,0.709-2.638,1.768
	c-0.454,1.059-0.236,2.283,0.553,3.124l1.134,1.215c0.582,0.619,1.409,0.965,2.254,0.917l3.129-0.142
	c0.331-0.014,0.657-0.085,0.969-0.213c2.25-0.922,3.98-1.55,5.412-1.976c1.555-0.421,2.798-0.638,3.691-0.638
	c3.129,0,5.663,1.19,7.7,3.64l-14.218,6.409l-5.114-0.057c-3.2,0-5.818-1.035-8.021-3.167c-2.198-2.108-3.261-4.618-3.261-7.672
	c0-2.032,0.647-4.996,6.225-7.203c4.533-1.774,11.448-2.668,20.561-2.668h1.513c0.009,0,0.014,0,0.019,0
	c1.65-0.062,2.921-1.3,2.921-2.912c0-0.184-0.014-0.368-0.052-0.548l-0.009-0.312c0-7.142-2.377-14.714-7.071-22.503
	c-0.009-0.015-0.019-0.028-0.028-0.043l-1.115-1.914c-1.862-3.086-2.808-5.988-2.808-8.626c0-2.453,0.652-4.528,1.933-6.168
	c1.073-1.371,2.633-2.501,4.651-3.38l3.101,14.393c0.109,0.516,0.359,0.992,0.723,1.376l17.314,18.429
	c3.181,3.979,5.317,6.726,6.707,8.621c5.852,8.236,8.215,9.323,8.976,9.673c0.747,0.346,2.973,1.386,13.509,1.442
	c1.74,5.109,2.624,10.379,2.624,15.673c0,4.49-0.794,9.203-2.368,14.024h-10.394c-0.903,0-1.749,0.416-2.302,1.125
	c-4.608,5.95-10.157,10.705-17.446,14.955L-55.491,235.866z M-74.053,235.605c-2.576,0-4.49-0.416-5.69-1.238
	c-0.875-0.6-1.375-1.451-1.527-2.585h6.423c0.411,0,0.813-0.09,1.187-0.256l11.562-5.161c1.361,1.11,2.453,2.26,3.323,3.498
	c0.004,0.009,0.009,0.014,0.014,0.019l-12.691,5.724H-74.053z M-97.322,209.992c0-0.397,0.118-0.846,0.345-1.328
	c2.392,1.002,5.53,1.489,9.529,1.489h4.315c0.406,0,0.813-0.09,1.191-0.256l12.37-5.554c1.929,0.591,3.668,1.726,5.195,3.389
	l-14.454,6.396h-9.066c-3.365,0-5.87-0.401-7.439-1.191C-96.693,212.219-97.322,211.282-97.322,209.992z M-78.136,221.058
	c0.374-0.02,0.822-0.086,1.196-0.251l12.61-5.592c1.38,0.737,2.619,1.692,3.673,2.808l-14.988,6.688h-6.333
	c-3.214,0-5.62-0.393-7.147-1.168c-1.224-0.619-1.805-1.418-1.853-2.571L-78.136,221.058z"/>
<g>
	<g>
		<path fill="#6D6E70" d="M118.184,188.572c-17.519-23.014-36.696-34.687-57.012-34.687c-34.42,0-59.148,33.313-60.184,34.729
			c-0.749,1.026-0.745,2.422,0.01,3.447c18.999,25.68,38.944,38.701,59.274,38.701c34.598,0,57.152-37.361,58.094-38.949
			C118.971,190.793,118.896,189.514,118.184,188.572z M60.272,224.95c-17.932,0-35.844-11.631-53.27-34.574
			c5.415-6.634,26.93-30.678,54.169-30.678c17.936,0,35.136,10.357,51.142,30.79C107.621,197.552,87.642,224.95,60.272,224.95z"/>
		<path fill="#6D6E70" d="M59.523,165.428c-14.657,0-26.583,11.865-26.583,26.447s11.926,26.442,26.583,26.442
			c14.657,0,26.583-11.86,26.583-26.442S74.18,165.428,59.523,165.428z M59.523,215.53c-13.116,0-23.792-10.615-23.792-23.655
			c0-13.041,10.675-23.656,23.792-23.656c13.121,0,23.791,10.615,23.791,23.656C83.314,204.915,72.644,215.53,59.523,215.53z"/>
		<path fill="#6D6E70" d="M59.523,180.726c-6.188,0-11.214,4.994-11.214,11.149c0,6.159,5.026,11.144,11.214,11.144
			c6.188,0,11.205-4.984,11.205-11.144C70.728,185.72,65.71,180.726,59.523,180.726z M52.909,188.455l0.051-0.239l3.434-2.337
			l3.401,6.68L52.909,188.455z"/>
	</g>
	<path fill="#6D6E70" d="M0.429,189.35c0,0,19.955-6.651,61.928-6.651s56.391,7.687,56.391,7.687s-22.215-36.499-56.79-36.499
		C27.384,153.886,0.429,189.35,0.429,189.35z"/>
</g>
<g>
	<path fill="#6D6E70" d="M176.284,155.307c-0.684-11.137-1.794-29.965-18.998-29.115c-3.515,0.174-6.521,1.624-8.912,4.304
		c-7.548,8.467-6.47,26.588-6.415,27.441c1.455,12.174,2.634,16.487,4.125,21.952c0.413,1.52,0.849,3.116,1.326,5
		c0.184,0.738,0.844,1.234,1.574,1.234c0.105,0,0.216-0.01,0.321-0.032l19.998-4.05c0.808-0.165,1.367-0.904,1.298-1.721
		c-0.509-6.566,1.262-10.27,2.969-13.854c1.482-3.098,3.01-6.305,2.73-10.917L176.284,155.307z"/>
	<path fill="#6D6E70" d="M172.604,190.899l-0.064-0.266c-0.211-0.84-1.046-1.367-1.9-1.193l-19.612,3.97
		c-0.422,0.087-0.798,0.339-1.032,0.702c-0.239,0.362-0.326,0.803-0.234,1.229c2.74,12.978,5.993,20.493,14.538,20.493
		c0.826,0,1.702-0.073,2.625-0.215c2.583-0.409,5.447-1.171,7.09-3.704c2.175-3.368,1.84-9.017-1.188-20.153
		C172.746,191.469,172.677,191.185,172.604,190.899z"/>
	<path fill="#6D6E70" d="M222.888,157.478c-2.399-2.685-5.396-4.135-8.911-4.309c-17.14-0.868-18.314,17.979-18.998,29.111
		l-0.018,0.247c-0.285,4.614,1.248,7.822,2.726,10.924c1.711,3.579,3.478,7.278,2.969,13.849c-0.064,0.817,0.495,1.556,1.299,1.717
		l19.998,4.047c0.109,0.027,0.225,0.042,0.325,0.042c0.734,0,1.391-0.501,1.574-1.234c0.473-1.882,0.908-3.479,1.321-4.993
		c1.496-5.465,2.676-9.778,4.14-22.049C229.358,184.061,230.432,165.943,222.888,157.478z"/>
	<path fill="#6D6E70" d="M220.23,220.388l-19.607-3.97c-0.854-0.174-1.693,0.354-1.899,1.198l-0.046,0.184
		c-0.078,0.312-0.156,0.619-0.243,0.94c-3.029,11.137-3.359,16.785-1.185,20.153c1.639,2.533,4.511,3.291,7.09,3.699
		c0.918,0.151,1.804,0.22,2.625,0.22c8.54,0,11.793-7.517,14.537-20.498c0.092-0.417,0.005-0.862-0.234-1.225
		C221.034,220.727,220.657,220.475,220.23,220.388z"/>
</g>
<g>
	<path fill="#6D6E70" d="M357.141,154.544c-3.299-22.803-34.421-27.958-39.999-27.958l-1.735-0.019
		c-9.614,0-41.175,2.444-43.713,33.845c-0.464,4.279-2.725,16.432-7.53,21.232c-1.149,1.153-3.543,3.55-2.448,6.238
		c1.039,2.548,3.834,2.579,6.087,2.603c0.381,0,1.107,0.009,1.721,0.054c-0.232,1.799-0.486,2.725-0.682,3.42
		c-0.2,0.709-0.404,1.44-0.404,2.457c0,1.173,0.445,2.652,2.394,3.515c-1.153,1.85-0.968,3.734,0.541,5.246
		c0.526,0.527,0.789,0.79,0.789,4.929c0,2.838,1.132,5.244,3.271,6.958c2.285,1.834,5.709,2.675,8.779,2.185l0.587-0.092
		c1.375-0.219,2.797-0.444,4.072-0.444c1.845,0,2.917,0.436,3.707,1.507c0.708,0.944,1.425,1.728,2.007,2.358
		c2.044,2.234,3.515,3.851,3.515,10.231c0,4.797,0.674,6.754,0.81,7.094l0.553,1.453c0.119,0.306,0.415,0.51,0.746,0.51l0,0
		l44.694-0.087c0.249,0,0.485-0.117,0.637-0.318c0.148-0.204,0.194-0.458,0.126-0.704l-0.849-2.894
		c-0.078-0.244-7.153-24.638,2.726-42.49c1.58-2.853,2.96-5.228,4.154-7.29l0.087-0.146
		C358.848,175.763,359.938,173.896,357.141,154.544z M337.993,235.684l-33.668,0.068c-0.077-0.863-0.118-1.849-0.118-2.943
		c0-8.752-2.598-11.6-5.132-14.37c-0.532-0.581-1.081-1.181-1.594-1.866c-1.976-2.67-4.792-3.969-8.612-3.969
		c-1.758,0-3.492,0.276-5.032,0.521l-0.562,0.087c-0.305,0.045-0.609,0.073-0.923,0.073c-0.418,0-4.087-0.092-4.087-3.18
		c0-4.011-0.218-6.142-1.526-8.012c0.545-0.953,0.809-1.953,0.809-3.034c0-1.912-0.927-3.369-2.625-4.178
		c0.245-0.959,0.563-2.43,0.808-4.893c0.177-1.779-0.518-2.97-1.13-3.66c-1.255-1.398-3.085-1.78-4.766-1.897
		c6.223-7.915,7.866-22.757,7.944-23.438c2.062-25.562,27-28.317,37.618-28.317l1.698,0.014c0.31,0.018,31.098,2.679,34,22.726
		c2.489,17.245,1.956,18.167-4.602,29.455c-1.23,2.126-2.661,4.588-4.295,7.545C333.569,208.007,336.185,227.204,337.993,235.684z"
		/>
	<path fill="#6D6E70" d="M288.611,169.387c0,0-2.185-3.701-1.545-5.99c0.637-2.29,0.223-2.381,0.568-4.229
		c0.345-1.848-0.746-2.293,0.881-4.134c1.626-1.834,3.144-3.887,3.098-5.29c-0.05-1.398,0.082-3.462,2.516-4.297
		c2.435-0.845,6.649-3.583,6.626-4.338c-0.032-0.753,2.717-1.493,4.152-1.549c1.435-0.053,4.341-0.64,5.081-1.476
		c0.736-0.831,3.348-1.089,4.306-0.153c0.958,0.935,3.048,1.943,4.037,0.83c0.986-1.113,2.993-0.917,3.688-0.235
		c0.691,0.671,0.642,3.643,2.657,2.602c2.017-1.044,3.279-0.117,4.733,0.373c1.457,0.48,1.862,3.278,3.479,2.462
		c1.612-0.809,2.562,1.371,3.36,2.148c0.8,0.784,0.718,2.838,2.817,2.761c2.106-0.072,2.573,1.693,2.605,2.553
		c0.031,0.862,1.096,1.907,1.999,2.792c0.903,0.882,2.226,3.32,2.267,4.61c0.045,1.295-1.032,2.635,0.136,3.774
		c1.167,1.145,1.603,3.239,0.667,4.291c-0.939,1.059-1.948,2.312-0.857,3.38c1.09,1.067,0.031,2.266-1.059,3.492
		c-1.085,1.227-1.026,2.73-0.977,4.139c0.045,1.397,1.031,3.033-1.485,3.124c-2.512,0.09-4.795,0.817-6.426,2.656
		c-1.626,1.838-3.048,5.234-4.482,3.826c-1.436-1.403-3.289-1.553-4.651-3.717c-1.357-2.167-1.445-3.139-2.316-3.106
		c-0.867,0.036-3.696,1.479-2.852-0.808c0.845-2.304,1.521-3.512-0.328-3.447c-1.843,0.063-5.449-0.242-6.535,0.989
		c-1.086,1.221-2.928,1.503-4.306,0.15c-1.384-1.358-2.043-2.518-4.154-1.259c-2.108,1.263-2.376,2.463-4.715,0.168
		c-2.34-2.289-4.519-2.97-5.646-2.924c-1.13,0.036-3.965,1.212-4.041-0.941C291.836,170.459,288.611,169.387,288.611,169.387"/>
</g>
<g>
	<path fill="#6D6E70" d="M424.339,162.19c0.069,0.058,0.143,0.115,0.214,0.167l-0.024,0.042c0.033,0.018,0.233,0.139,0.722,0.428
		c0.083,0.052,0.158,0.096,0.223,0.134c0.027,0.018,0.056,0.033,0.083,0.049c0.896,0.533,2.486,1.482,5.183,3.089
		c4.627,2.757,4.56,6.404,3.944,8.631h6.385c0.638-4.339-0.358-10.065-7.084-14.075l-5.003-2.979
		c-0.069-0.043-0.145-0.087-0.221-0.132c-0.842-0.56-9.511-6.529-5.758-13.243l6.097-10.224c0.896-1.505,0.405-3.45-1.099-4.346
		c-1.502-0.896-3.447-0.405-4.343,1.099l-6.142,10.302C412.426,150.237,419.254,158.476,424.339,162.19z"/>
	<path fill="#6D6E70" d="M402.062,197.354c-3.621,0-6.567,2.948-6.567,6.569c0,3.619,2.946,6.566,6.567,6.566
		s6.567-2.947,6.567-6.566C408.629,200.303,405.683,197.354,402.062,197.354z"/>
	<path fill="#6D6E70" d="M466.58,179.48c-0.035,0-0.071,0.002-0.109,0.002h-62.94c-0.036,0-0.071-0.002-0.107-0.002
		c-13.999,0-25.386,11.79-25.386,26.284c0,10.255,0,33.172,16.553,33.172c9.012,0,25.287-11.221,30.77-24.455h19.28
		c5.486,13.234,21.76,24.455,30.771,24.455c16.553,0,16.553-22.917,16.553-33.172C491.964,191.271,480.577,179.48,466.58,179.48z
		 M402.062,216.51c-6.941,0-12.586-5.646-12.586-12.586c0-6.941,5.645-12.586,12.586-12.586s12.588,5.645,12.588,12.586
		C414.649,210.863,409.003,216.51,402.062,216.51z M462.061,206.963c-1.68,1.681-4.402,1.681-6.083,0
		c-1.681-1.68-1.681-4.403,0-6.081c1.681-1.681,4.401-1.681,6.083,0C463.736,202.56,463.736,205.283,462.061,206.963z
		 M471.634,216.541c-1.675,1.68-4.398,1.68-6.079,0c-1.68-1.681-1.68-4.403,0-6.084c1.681-1.676,4.401-1.676,6.079,0.002
		C473.314,212.14,473.314,214.86,471.634,216.541z M471.634,197.386c-1.675,1.68-4.398,1.68-6.079,0.002
		c-1.68-1.681-1.68-4.403,0-6.081c1.681-1.681,4.401-1.681,6.079,0C473.314,192.984,473.314,195.707,471.634,197.386z
		 M481.214,206.963c-1.68,1.681-4.403,1.681-6.081,0c-1.68-1.68-1.68-4.403,0-6.081c1.678-1.681,4.401-1.681,6.081,0
		C482.893,202.56,482.893,205.283,481.214,206.963z"/>
</g>
</svg>
